# xmcd
#
# Track frame offsets: 
#        150
#        9472
#        20322
#        31162
#        44987
#        56310
#        68497
#        83647
#        94750
#        103437
#        114072
#        127212
#        136167
#        147655
#        156497
#        170317
#        183070
#        195342
#        207705
#        220272
#        235337
#        246830
#
# Disc length: 3456 seconds
#
# Revision: 7
# Processed by: cddbd v1.5.2PL0 Copyright (c) Steve Scherf et al.
# Submitted via: ExactAudioCopyFreeDBPlugin 1.0
#
DISCID=360d7e16
DTITLE=Solomon Burke - Home In Your Heart:  The Best of Solomon Burke
DYEAR=1992
DGENRE=Soul
TTITLE0=Home in Your Heart
TTITLE1=Down in the Valley
TTITLE2=Looking for my Baby
TTITLE3=I'm Hanging Up My Heart for You
TTITLE4=Cry to Me
TTITLE5=Just Out Of Reach
TTITLE6=Goodbye Baby
TTITLE7=Words
TTITLE8=Stupidity
TTITLE9=Send Me Some Lovin'
TTITLE10=Go on Back to Him
TTITLE11=Baby, I Wanna Be Loved
TTITLE12=Can't Nobody Love You
TTITLE13=Got to Get You Off My Mind
TTITLE14=Someone to Love Me
TTITLE15=You're Good for Me
TTITLE16=Dance, Dance, Dance
TTITLE17=Everybody Needs Somebody to Love
TTITLE18=Tonight's the Night
TTITLE19=Baby, Come on Home
TTITLE20=If You Need Me
TTITLE21=The Price
EXTD=
EXTT0=
EXTT1=
EXTT2=
EXTT3=
EXTT4=
EXTT5=
EXTT6=
EXTT7=
EXTT8=
EXTT9=
EXTT10=
EXTT11=
EXTT12=
EXTT13=
EXTT14=
EXTT15=
EXTT16=
EXTT17=
EXTT18=
EXTT19=
EXTT20=
EXTT21=
PLAYORDER=
